# xmcd
#
# Track frame offsets: 
#        150
#        13400
#        27266
#        40023
#        52837
#        66890
#        79046
#        91759
#        105500
#        117510
#        132700
#        145166
#        160188
#        173139
#        183355
#        201340
#        214412
#        230611
#        244742
#        260298
#        276787
#
# Disc length: 3861 seconds
#
# Revision: 0
# Processed by: cddbd v1.5.2PL0 Copyright (c) Steve Scherf et al.
# Submitted via: ExactAudioCopyFreeDBPlugin 1.0
#
DISCID=2b0f1315
DTITLE=Elmore James - The Final Sessions
DYEAR=1963
DGENRE=Blues
TTITLE0=Look on Yonder Wall
TTITLE1=Find My Kind of Woman
TTITLE2=Find My Kinda Woman
TTITLE3=Dust My Broom (Mono)
TTITLE4=My Baby's Gone
TTITLE5=You Can Do It If You Want To
TTITLE6=Woke Up Happy
TTITLE7=Hand in Hand
TTITLE8=I've Got a Right to Love My Baby
TTITLE9=Every Day I Have the Blues
TTITLE10=Dust My Broom
TTITLE11=It Hurts Me Too
TTITLE12=Talk to Me Baby
TTITLE13=Can't Stop Loving My Baby
TTITLE14=She's Got To Go
TTITLE15=Pickin' the Blues
TTITLE16=Twelve Year Old Boy
TTITLE17=Elmore Jumps One
TTITLE18=I Believe
TTITLE19=I Gotta Go Now
TTITLE20=Make My Dreams Come True
EXTD=
EXTT0=
EXTT1=
EXTT2=
EXTT3=
EXTT4=
EXTT5=
EXTT6=
EXTT7=
EXTT8=
EXTT9=
EXTT10=
EXTT11=
EXTT12=
EXTT13=
EXTT14=
EXTT15=
EXTT16=
EXTT17=
EXTT18=
EXTT19=
EXTT20=
PLAYORDER=
